<svg xmlns="http://www.w3.org/2000/svg" xmlns:xlink="http://www.w3.org/1999/xlink" width="1080" zoomAndPan="magnify" viewBox="0 0 810 809.999993" height="1080" preserveAspectRatio="xMidYMid meet" version="1.0"><defs><clipPath id="455c59852a"><path d="M 1 118.347656 L 234 118.347656 L 234 691.652344 L 1 691.652344 Z M 1 118.347656 " clip-rule="nonzero"/></clipPath><clipPath id="d94e5decd6"><path d="M 289 118.347656 L 521 118.347656 L 521 691.652344 L 289 691.652344 Z M 289 118.347656 " clip-rule="nonzero"/></clipPath><clipPath id="94559b694a"><path d="M 576 118.347656 L 810 118.347656 L 810 691.652344 L 576 691.652344 Z M 576 118.347656 " clip-rule="nonzero"/></clipPath></defs><g clip-path="url(#455c59852a)"><path fill="#1a73e8" d="M 80.519531 691.648438 C 77.332031 691.648438 74.390625 690.484375 71.699219 688.15625 C 69 685.828125 67.65625 683.070312 67.65625 679.886719 L 67.65625 561.148438 C 67.65625 554.53125 69.738281 549.507812 73.902344 546.074219 C 78.070312 542.644531 82.722656 540.929688 87.875 540.929688 L 126.824219 540.929688 C 135.191406 540.929688 142.9375 542.582031 150.164062 545.894531 C 157.386719 549.199219 163.207031 554.039062 167.625 560.410156 C 172.042969 566.785156 174.28125 574.625 174.28125 583.941406 C 174.28125 598.402344 169.652344 609.917969 160.453125 618.496094 C 151.304688 627.070312 140.183594 631.359375 127.1875 631.359375 L 102.550781 631.359375 C 96.449219 631.359375 93.386719 635.039062 93.386719 642.390625 L 93.386719 679.886719 C 93.386719 683.070312 92.097656 685.828125 89.527344 688.15625 C 86.953125 690.484375 83.949219 691.648438 80.519531 691.648438 Z M 100.734375 609.304688 L 123.1875 609.304688 C 129.269531 609.304688 135.246094 607.464844 140.960938 603.792969 C 146.730469 600.117188 149.644531 593.742188 149.644531 584.675781 C 149.644531 577.570312 146.992188 572.234375 141.742188 568.6875 C 136.441406 565.128906 130.773438 563.351562 124.640625 563.351562 L 101.824219 563.351562 C 95.710938 563.351562 92.648438 566.292969 92.648438 572.179688 L 92.648438 599.378906 C 92.648438 605.996094 95.347656 609.304688 100.734375 609.304688 Z M 50.191406 380.039062 C 77.046875 380.039062 98.859375 401.84375 98.859375 428.703125 C 98.859375 455.554688 77.046875 477.355469 50.191406 477.355469 C 23.332031 477.355469 1.535156 455.554688 1.535156 428.703125 C 1.535156 401.84375 23.332031 380.039062 50.191406 380.039062 Z M 184.363281 416.496094 C 191.121094 416.496094 196.578125 421.964844 196.578125 428.703125 C 196.578125 435.433594 191.121094 440.902344 184.363281 440.902344 C 177.660156 440.902344 172.148438 435.433594 172.148438 428.703125 C 172.148438 421.964844 177.660156 416.496094 184.363281 416.496094 Z M 50.191406 249.171875 C 77.046875 249.171875 98.859375 270.976562 98.859375 297.835938 C 98.859375 324.691406 77.046875 346.496094 50.191406 346.496094 C 23.332031 346.496094 1.535156 324.691406 1.535156 297.835938 C 1.535156 270.976562 23.332031 249.171875 50.191406 249.171875 Z M 184.363281 285.636719 C 191.121094 285.636719 196.578125 291.101562 196.578125 297.835938 C 196.578125 304.570312 191.121094 310.03125 184.363281 310.03125 C 177.660156 310.03125 172.148438 304.570312 172.148438 297.835938 C 172.148438 291.101562 177.660156 285.636719 184.363281 285.636719 Z M 50.191406 118.3125 C 77.046875 118.3125 98.859375 140.113281 98.859375 166.972656 C 98.859375 193.828125 77.046875 215.632812 50.191406 215.632812 C 23.332031 215.632812 1.535156 193.828125 1.535156 166.972656 C 1.535156 140.113281 23.332031 118.3125 50.191406 118.3125 Z M 184.363281 118.3125 C 211.234375 118.3125 233.015625 140.113281 233.015625 166.972656 C 233.015625 193.828125 211.234375 215.632812 184.363281 215.632812 C 157.492188 215.632812 135.714844 193.828125 135.714844 166.972656 C 135.714844 140.113281 157.492188 118.3125 184.363281 118.3125 Z M 184.363281 118.3125 " fill-opacity="1" fill-rule="evenodd"/></g><g clip-path="url(#d94e5decd6)"><path fill="#1a73e8" d="M 463.269531 679.886719 C 459.101562 683.070312 452.609375 685.828125 443.785156 688.15625 C 434.964844 690.484375 426.261719 691.648438 417.6875 691.648438 C 403.46875 691.648438 390.726562 688.34375 379.453125 681.726562 C 368.179688 675.109375 359.234375 665.914062 352.617188 654.152344 C 346 642.390625 342.695312 628.910156 342.695312 613.714844 C 342.695312 598.765625 345.878906 585.53125 352.253906 574.011719 C 358.621094 562.496094 367.628906 553.488281 379.269531 546.996094 C 390.914062 540.5 404.453125 537.253906 419.890625 537.253906 C 426.019531 537.253906 432.082031 537.742188 438.085938 538.726562 C 444.089844 539.703125 450.15625 541.417969 456.285156 543.871094 C 458.730469 545.09375 460.511719 546.75 461.613281 548.832031 C 462.714844 550.914062 463.269531 552.9375 463.269531 554.894531 C 463.269531 558.082031 462.226562 560.90625 460.140625 563.351562 C 458.0625 565.804688 455.300781 567.027344 451.871094 567.027344 C 450.402344 567.027344 448.683594 566.664062 446.726562 565.925781 C 442.808594 564.453125 438.207031 563.109375 432.941406 561.882812 C 427.671875 560.65625 422.464844 560.046875 417.316406 560.046875 C 407.515625 560.046875 398.9375 562.558594 391.582031 567.578125 C 384.234375 572.605469 378.53125 579.285156 374.488281 587.617188 C 370.445312 595.949219 368.429688 605.136719 368.429688 615.183594 C 368.429688 630.136719 372.960938 642.878906 382.023438 653.417969 C 391.09375 663.953125 403.101562 669.226562 418.050781 669.226562 C 424.667969 669.226562 431.164062 668.183594 437.535156 666.101562 C 443.910156 664.015625 448.683594 661.75 451.871094 659.296875 C 454.570312 657.828125 456.898438 657.09375 458.855469 657.09375 C 462.042969 657.09375 464.617188 658.257812 466.574219 660.585938 C 468.535156 662.914062 469.519531 665.550781 469.519531 668.492188 C 469.519531 672.898438 467.433594 676.699219 463.269531 679.886719 Z M 338.097656 416.496094 C 344.828125 416.496094 350.296875 421.964844 350.296875 428.703125 C 350.296875 435.433594 344.828125 440.902344 338.097656 440.902344 C 331.363281 440.902344 325.898438 435.433594 325.898438 428.703125 C 325.898438 421.964844 331.363281 416.496094 338.097656 416.496094 Z M 472.273438 416.496094 C 479.007812 416.496094 484.472656 421.964844 484.472656 428.703125 C 484.472656 435.433594 479.007812 440.902344 472.273438 440.902344 C 465.542969 440.902344 460.074219 435.433594 460.074219 428.703125 C 460.074219 421.964844 465.542969 416.496094 472.273438 416.496094 Z M 338.097656 285.636719 C 344.828125 285.636719 350.296875 291.101562 350.296875 297.832031 C 350.296875 304.570312 344.828125 310.03125 338.097656 310.03125 C 331.363281 310.03125 325.898438 304.570312 325.898438 297.832031 C 325.898438 291.101562 331.363281 285.636719 338.097656 285.636719 Z M 472.273438 285.636719 C 479.007812 285.636719 484.472656 291.101562 484.472656 297.832031 C 484.472656 304.570312 479.007812 310.03125 472.273438 310.03125 C 465.542969 310.03125 460.074219 304.570312 460.074219 297.832031 C 460.074219 291.101562 465.542969 285.636719 472.273438 285.636719 Z M 338.097656 118.3125 C 364.957031 118.3125 386.753906 140.113281 386.753906 166.972656 C 386.753906 193.828125 364.957031 215.632812 338.097656 215.632812 C 311.242188 215.632812 289.4375 193.828125 289.4375 166.972656 C 289.4375 140.113281 311.242188 118.3125 338.097656 118.3125 Z M 472.273438 118.3125 C 499.128906 118.3125 520.933594 140.113281 520.933594 166.972656 C 520.933594 193.828125 499.128906 215.632812 472.273438 215.632812 C 445.417969 215.632812 423.617188 193.828125 423.617188 166.972656 C 423.617188 140.113281 445.417969 118.3125 472.273438 118.3125 Z M 472.273438 118.3125 " fill-opacity="1" fill-rule="evenodd"/></g><g clip-path="url(#94559b694a)"><path fill="#1a73e8" d="M 654.269531 691.609375 C 649.089844 691.609375 644.222656 689.882812 639.660156 686.433594 C 635.09375 682.980469 632.8125 678.046875 632.8125 671.632812 L 632.8125 562.867188 C 632.8125 557.191406 634.726562 552.570312 638.546875 548.992188 C 642.371094 545.417969 646.875 543.628906 652.050781 543.628906 L 685.351562 543.628906 C 700.15625 543.628906 713.179688 546.648438 724.375 552.695312 C 735.621094 558.734375 744.355469 567.304688 750.632812 578.402344 C 756.910156 589.503906 760.101562 602.820312 760.101562 618.359375 C 760.101562 631.925781 757.171875 644.253906 751.363281 655.355469 C 745.613281 666.457031 737.554688 675.269531 727.355469 681.808594 C 717.101562 688.339844 705.332031 691.609375 691.996094 691.609375 Z M 669.4375 668.671875 L 685.71875 668.671875 C 701.777344 668.671875 713.964844 664.421875 722.332031 655.910156 C 730.753906 647.398438 734.785156 634.882812 734.574219 618.359375 C 734.3125 601.585938 729.972656 588.761719 721.601562 579.882812 C 713.230469 571.007812 701.148438 566.566406 685.351562 566.566406 L 669.808594 566.566406 C 662.410156 566.566406 658.710938 570.265625 658.710938 577.667969 L 658.710938 657.574219 C 658.710938 664.976562 662.289062 668.671875 669.4375 668.671875 Z M 625.226562 418.402344 C 632.007812 418.402344 637.503906 423.90625 637.503906 430.683594 C 637.503906 437.457031 632.007812 442.960938 625.226562 442.960938 C 618.453125 442.960938 612.949219 437.457031 612.949219 430.683594 C 612.949219 423.90625 618.453125 418.402344 625.226562 418.402344 Z M 760.257812 418.402344 C 767.058594 418.402344 772.550781 423.90625 772.550781 430.683594 C 772.550781 437.457031 767.058594 442.960938 760.257812 442.960938 C 753.511719 442.960938 747.964844 437.457031 747.964844 430.683594 C 747.964844 423.90625 753.511719 418.402344 760.257812 418.402344 Z M 760.257812 250.007812 C 787.300781 250.007812 809.21875 271.953125 809.21875 298.980469 C 809.21875 326.007812 787.300781 347.953125 760.257812 347.953125 C 733.214844 347.953125 711.296875 326.007812 711.296875 298.980469 C 711.296875 271.953125 733.214844 250.007812 760.257812 250.007812 Z M 625.226562 286.703125 C 632.007812 286.703125 637.503906 292.207031 637.503906 298.980469 C 637.503906 305.757812 632.007812 311.257812 625.226562 311.257812 C 618.453125 311.257812 612.949219 305.757812 612.949219 298.980469 C 612.949219 292.207031 618.453125 286.703125 625.226562 286.703125 Z M 625.226562 118.3125 C 652.253906 118.3125 674.210938 140.253906 674.210938 167.28125 C 674.210938 194.308594 652.253906 216.253906 625.226562 216.253906 C 598.199219 216.253906 576.261719 194.308594 576.261719 167.28125 C 576.261719 140.253906 598.199219 118.3125 625.226562 118.3125 Z M 760.257812 118.3125 C 787.300781 118.3125 809.21875 140.253906 809.21875 167.28125 C 809.21875 194.308594 787.300781 216.253906 760.257812 216.253906 C 733.214844 216.253906 711.296875 194.308594 711.296875 167.28125 C 711.296875 140.253906 733.214844 118.3125 760.257812 118.3125 Z M 760.257812 118.3125 " fill-opacity="1" fill-rule="evenodd"/></g></svg>